<svg width="107" height="16" viewBox="0 0 107 16" fill="none" xmlns="http://www.w3.org/2000/svg">
<path d="M3.82692 15.716C3.12692 15.716 2.59959 15.5387 2.24492 15.184C1.89026 14.8387 1.71292 14.3253 1.71292 13.644V10.424C1.71292 10.1813 1.65692 10.004 1.54492 9.892C1.43292 9.78 1.27892 9.724 1.08292 9.724H0.592922V8.604H1.08292C1.27892 8.604 1.43292 8.548 1.54492 8.436C1.65692 8.324 1.71292 8.14667 1.71292 7.904V4.684C1.71292 3.99333 1.89026 3.47533 2.24492 3.13C2.59959 2.78467 3.12692 2.612 3.82692 2.612H4.44292V3.718H4.09292C3.74759 3.718 3.48626 3.81133 3.30892 3.998C3.14092 4.18467 3.05692 4.45533 3.05692 4.81V7.876C3.05692 8.20267 3.01492 8.45933 2.93092 8.646C2.84692 8.82333 2.72092 8.95867 2.55292 9.052C2.39426 9.136 2.18426 9.20133 1.92292 9.248V9.08C2.18426 9.11733 2.39426 9.18267 2.55292 9.276C2.72092 9.36933 2.84692 9.50933 2.93092 9.696C3.01492 9.87333 3.05692 10.1253 3.05692 10.452V13.518C3.05692 13.8727 3.14092 14.1433 3.30892 14.33C3.48626 14.5167 3.74759 14.61 4.09292 14.61H4.44292V15.716H3.82692ZM103.179 15.716H102.563V14.61H102.899C103.263 14.61 103.529 14.5167 103.697 14.33C103.874 14.1433 103.963 13.8727 103.963 13.518V10.452C103.963 10.1253 104 9.87333 104.075 9.696C104.159 9.50933 104.285 9.36933 104.453 9.276C104.621 9.18267 104.831 9.11733 105.083 9.08V9.248C104.831 9.20133 104.621 9.136 104.453 9.052C104.285 8.95867 104.159 8.82333 104.075 8.646C104 8.45933 103.963 8.20267 103.963 7.876V4.81C103.963 4.45533 103.874 4.18467 103.697 3.998C103.529 3.81133 103.263 3.718 102.899 3.718H102.563V2.612H103.179C103.879 2.612 104.406 2.78467 104.761 3.13C105.125 3.47533 105.307 3.99333 105.307 4.684V7.904C105.307 8.14667 105.363 8.324 105.475 8.436C105.587 8.548 105.736 8.604 105.923 8.604H106.399V9.724H105.923C105.736 9.724 105.587 9.78 105.475 9.892C105.363 10.004 105.307 10.1813 105.307 10.424V13.644C105.307 14.3253 105.125 14.8387 104.761 15.184C104.406 15.5387 103.879 15.716 103.179 15.716Z" fill="#00CED1"/>
<path d="M11.7478 13V3.192H7.90775V1.8H17.1718V3.192H13.3318V13H11.7478ZM21.4474 13.096C20.594 13.096 19.8367 12.9093 19.1754 12.536C18.514 12.1627 17.9914 11.6507 17.6074 11C17.2234 10.3387 17.0314 9.592 17.0314 8.76C17.0314 7.91733 17.2234 7.17067 17.6074 6.52C17.9914 5.86933 18.514 5.36267 19.1754 5C19.8367 4.62667 20.594 4.44 21.4474 4.44C22.29 4.44 23.042 4.62667 23.7034 5C24.3754 5.36267 24.898 5.86933 25.2714 6.52C25.6554 7.16 25.8474 7.90667 25.8474 8.76C25.8474 9.60267 25.6554 10.3493 25.2714 11C24.898 11.6507 24.3754 12.1627 23.7034 12.536C23.042 12.9093 22.29 13.096 21.4474 13.096ZM21.4474 11.752C21.9914 11.752 22.4767 11.6293 22.9034 11.384C23.3407 11.1387 23.682 10.792 23.9274 10.344C24.1727 9.88533 24.2954 9.35733 24.2954 8.76C24.2954 8.152 24.1727 7.62933 23.9274 7.192C23.682 6.744 23.3407 6.39733 22.9034 6.152C22.4767 5.90667 21.9914 5.784 21.4474 5.784C20.9034 5.784 20.418 5.90667 19.9914 6.152C19.5647 6.39733 19.2234 6.744 18.9674 7.192C18.7114 7.62933 18.5834 8.152 18.5834 8.76C18.5834 9.35733 18.7114 9.88533 18.9674 10.344C19.2234 10.792 19.5647 11.1387 19.9914 11.384C20.418 11.6293 20.9034 11.752 21.4474 11.752ZM27.9716 13V4.52H29.4436V6.824L29.2996 6.248C29.5343 5.66133 29.929 5.21333 30.4836 4.904C31.0383 4.59467 31.721 4.44 32.5316 4.44V5.928C32.4676 5.91733 32.4036 5.912 32.3396 5.912C32.2863 5.912 32.233 5.912 32.1796 5.912C31.3583 5.912 30.7076 6.15733 30.2276 6.648C29.7476 7.13867 29.5076 7.848 29.5076 8.776V13H27.9716ZM34.4248 13V4.52H35.8968V6.824L35.7528 6.248C35.9874 5.66133 36.3821 5.21333 36.9368 4.904C37.4914 4.59467 38.1741 4.44 38.9848 4.44V5.928C38.9208 5.91733 38.8568 5.912 38.7928 5.912C38.7394 5.912 38.6861 5.912 38.6328 5.912C37.8114 5.912 37.1608 6.15733 36.6808 6.648C36.2008 7.13867 35.9608 7.848 35.9608 8.776V13H34.4248ZM40.8779 13V4.52H42.4139V13H40.8779ZM41.6459 2.888C41.3472 2.888 41.0965 2.792 40.8939 2.6C40.7019 2.408 40.6059 2.17333 40.6059 1.896C40.6059 1.608 40.7019 1.368 40.8939 1.176C41.0965 0.984 41.3472 0.888 41.6459 0.888C41.9445 0.888 42.1899 0.984 42.3819 1.176C42.5845 1.35733 42.6859 1.58667 42.6859 1.864C42.6859 2.152 42.5899 2.39733 42.3979 2.6C42.2059 2.792 41.9552 2.888 41.6459 2.888ZM49.0426 13.096C48.1786 13.096 47.4053 12.9093 46.7226 12.536C46.0506 12.1627 45.5226 11.6507 45.1386 11C44.7546 10.3493 44.5626 9.60267 44.5626 8.76C44.5626 7.91733 44.7546 7.17067 45.1386 6.52C45.5226 5.86933 46.0506 5.36267 46.7226 5C47.4053 4.62667 48.1786 4.44 49.0426 4.44C49.8106 4.44 50.4933 4.59467 51.0906 4.904C51.6986 5.20267 52.168 5.65067 52.4986 6.248L51.3306 7C51.0533 6.584 50.712 6.28 50.3066 6.088C49.912 5.88533 49.4853 5.784 49.0266 5.784C48.472 5.784 47.976 5.90667 47.5386 6.152C47.1013 6.39733 46.7546 6.744 46.4986 7.192C46.2426 7.62933 46.1146 8.152 46.1146 8.76C46.1146 9.368 46.2426 9.896 46.4986 10.344C46.7546 10.792 47.1013 11.1387 47.5386 11.384C47.976 11.6293 48.472 11.752 49.0266 11.752C49.4853 11.752 49.912 11.656 50.3066 11.464C50.712 11.2613 51.0533 10.952 51.3306 10.536L52.4986 11.272C52.168 11.8587 51.6986 12.312 51.0906 12.632C50.4933 12.9413 49.8106 13.096 49.0426 13.096ZM57.9943 13.096C57.1409 13.096 56.3836 12.9093 55.7223 12.536C55.0609 12.1627 54.5383 11.6507 54.1543 11C53.7703 10.3387 53.5783 9.592 53.5783 8.76C53.5783 7.91733 53.7703 7.17067 54.1543 6.52C54.5383 5.86933 55.0609 5.36267 55.7223 5C56.3836 4.62667 57.1409 4.44 57.9943 4.44C58.8369 4.44 59.5889 4.62667 60.2503 5C60.9223 5.36267 61.4449 5.86933 61.8183 6.52C62.2023 7.16 62.3943 7.90667 62.3943 8.76C62.3943 9.60267 62.2023 10.3493 61.8183 11C61.4449 11.6507 60.9223 12.1627 60.2503 12.536C59.5889 12.9093 58.8369 13.096 57.9943 13.096ZM57.9943 11.752C58.5383 11.752 59.0236 11.6293 59.4503 11.384C59.8876 11.1387 60.2289 10.792 60.4743 10.344C60.7196 9.88533 60.8423 9.35733 60.8423 8.76C60.8423 8.152 60.7196 7.62933 60.4743 7.192C60.2289 6.744 59.8876 6.39733 59.4503 6.152C59.0236 5.90667 58.5383 5.784 57.9943 5.784C57.4503 5.784 56.9649 5.90667 56.5383 6.152C56.1116 6.39733 55.7703 6.744 55.5143 7.192C55.2583 7.62933 55.1303 8.152 55.1303 8.76C55.1303 9.35733 55.2583 9.88533 55.5143 10.344C55.7703 10.792 56.1116 11.1387 56.5383 11.384C56.9649 11.6293 57.4503 11.752 57.9943 11.752ZM69.0394 13V1.8H73.7594C74.954 1.8 76.0047 2.03467 76.9114 2.504C77.8287 2.97333 78.538 3.62933 79.0394 4.472C79.5514 5.31467 79.8074 6.29067 79.8074 7.4C79.8074 8.50933 79.5514 9.48533 79.0394 10.328C78.538 11.1707 77.8287 11.8267 76.9114 12.296C76.0047 12.7653 74.954 13 73.7594 13H69.0394ZM70.6394 11.608H73.6634C74.5914 11.608 75.3914 11.432 76.0634 11.08C76.746 10.728 77.274 10.2373 77.6474 9.608C78.0207 8.968 78.2074 8.232 78.2074 7.4C78.2074 6.55733 78.0207 5.82133 77.6474 5.192C77.274 4.56267 76.746 4.072 76.0634 3.72C75.3914 3.368 74.5914 3.192 73.6634 3.192H70.6394V11.608ZM85.8101 13.096C84.9035 13.096 84.1035 12.9093 83.4101 12.536C82.7275 12.1627 82.1941 11.6507 81.8101 11C81.4368 10.3493 81.2501 9.60267 81.2501 8.76C81.2501 7.91733 81.4315 7.17067 81.7941 6.52C82.1675 5.86933 82.6741 5.36267 83.3141 5C83.9648 4.62667 84.6955 4.44 85.5061 4.44C86.3275 4.44 87.0528 4.62133 87.6821 4.984C88.3115 5.34667 88.8021 5.85867 89.1541 6.52C89.5168 7.17067 89.6981 7.93333 89.6981 8.808C89.6981 8.872 89.6928 8.94667 89.6821 9.032C89.6821 9.11733 89.6768 9.19733 89.6661 9.272H82.4501V8.168H88.8661L88.2421 8.552C88.2528 8.008 88.1408 7.52267 87.9061 7.096C87.6715 6.66933 87.3461 6.33867 86.9301 6.104C86.5248 5.85867 86.0501 5.736 85.5061 5.736C84.9728 5.736 84.4981 5.85867 84.0821 6.104C83.6661 6.33867 83.3408 6.67467 83.1061 7.112C82.8715 7.53867 82.7541 8.02933 82.7541 8.584V8.84C82.7541 9.40533 82.8821 9.912 83.1381 10.36C83.4048 10.7973 83.7728 11.1387 84.2421 11.384C84.7115 11.6293 85.2501 11.752 85.8581 11.752C86.3595 11.752 86.8128 11.6667 87.2181 11.496C87.6341 11.3253 87.9968 11.0693 88.3061 10.728L89.1541 11.72C88.7701 12.168 88.2901 12.5093 87.7141 12.744C87.1488 12.9787 86.5141 13.096 85.8101 13.096ZM93.8988 13L90.1867 4.52H91.7868L95.0828 12.2H94.3148L97.6748 4.52H99.1788L95.4668 13H93.8988Z" fill="white"/>
</svg>
