<?xml version="1.0" encoding="utf-8"?>
<svg version="1.1" id="Layer_1" xmlns="http://www.w3.org/2000/svg" xmlns:xlink="http://www.w3.org/1999/xlink" x="0px" y="0px"
	 viewBox="0 0 512 512" style="enable-background:new 0 0 512 512;" xml:space="preserve" fill="#00CED1">
<title>01</title>
<g>
	<path class="st0" d="M256,6C118.2,6,6,118.2,6,256s112.2,250,250,250s250-112.1,250-250S393.9,6,256,6z M256,479.1
		C133,479.1,32.9,379,32.9,256S133,32.9,256,32.9S479.1,133,479.1,256S379,479.1,256,479.1z"/>
	<path class="st0" d="M189.3,202.5h-48.2c-2.3,0-4.2,1.9-4.2,4.2v161.7c0,2.3,1.9,4.2,4.2,4.2h48.2c2.3,0,4.2-1.9,4.2-4.2V206.7
		C193.5,204.4,191.6,202.5,189.3,202.5z"/>
	<path class="st0" d="M332.3,198.5c-30.1,0-43.5,16.5-51,28.1v0.5h-0.4c0.1-0.2,0.3-0.4,0.4-0.5v-19.9c0-2.3-1.9-4.2-4.2-4.2H229
		c0,0,0,0-0.1,0c-2.3,0-4.1,1.9-4.1,4.2c0.5,26.4,0,138.5-0.1,161.6c0,0,0,0,0,0c0,2.3,1.9,4.1,4.2,4.1h48.2c2.3,0,4.2-1.9,4.2-4.2
		v-90.8c0-5.1,0.4-10.1,1.9-13.8c4.1-10.2,13.4-20.7,29-20.7c20.5,0,28.6,15.6,28.6,38.4v86.8c0,2.3,1.9,4.2,4.2,4.2h48.2
		c2.3,0,4.2-1.9,4.2-4.2V275l0,0C397.4,222.8,369.5,198.5,332.3,198.5z"/>
	<circle class="st0" cx="163.5" cy="150.6" r="30.3"/>
</g>
</svg>
